<svg width="17" height="17" viewBox="0 0 17 17" fill="none" xmlns="http://www.w3.org/2000/svg">
<path d="M4.06523 6.36523H0.615234V15.9486H4.06523V6.36523Z" stroke="#141B34" stroke-width="0.353846" stroke-linejoin="round"/>
<path d="M4.06523 2.34023C4.06523 3.29293 3.29293 4.06523 2.34023 4.06523C1.38754 4.06523 0.615234 3.29293 0.615234 2.34023C0.615234 1.38754 1.38754 0.615234 2.34023 0.615234C3.29293 0.615234 4.06523 1.38754 4.06523 2.34023Z" stroke="#141B34" stroke-width="0.353846" stroke-linejoin="round"/>
<path d="M9.81531 6.36523H6.36523V15.9486H9.81531V11.1571C9.81531 10.4161 10.4159 9.81539 11.1569 9.81539C11.8979 9.81539 12.4986 10.4161 12.4986 11.1571V15.9486H15.9476L15.9486 9.81539C15.9486 7.91007 14.1365 6.36542 12.3428 6.36542C11.3217 6.36542 10.4107 6.86594 9.81531 7.64863V6.36523Z" stroke="#141B34" stroke-width="0.353846" stroke-linejoin="round"/>
</svg>
