<svg width="17" height="17" viewBox="0 0 17 17" fill="none" xmlns="http://www.w3.org/2000/svg">
<path d="M0.871094 8.28239C0.871094 4.66829 0.871094 2.86124 1.99385 1.73848C3.11661 0.615723 4.92366 0.615723 8.53776 0.615723C12.1518 0.615723 13.9589 0.615723 15.0817 1.73848C16.2044 2.86124 16.2044 4.66829 16.2044 8.28239C16.2044 11.8965 16.2044 13.7035 15.0817 14.8263C13.9589 15.9491 12.1518 15.9491 8.53776 15.9491C4.92366 15.9491 3.11661 15.9491 1.99385 14.8263C0.871094 13.7035 0.871094 11.8965 0.871094 8.28239Z" stroke="#141B34" stroke-width="0.353846" stroke-linejoin="round"/>
<path d="M12.1704 8.28197C12.1704 10.2877 10.5445 11.9135 8.53881 11.9135C6.53314 11.9135 4.90723 10.2877 4.90723 8.28197C4.90723 6.27631 6.53314 4.65039 8.53881 4.65039C10.5445 4.65039 12.1704 6.27631 12.1704 8.28197Z" stroke="#141B34" stroke-width="0.353846"/>
<path d="M12.9833 3.84375H12.9746" stroke="#141B34" stroke-width="0.353846" stroke-linecap="round" stroke-linejoin="round"/>
</svg>
